# xmcd
#
# Track frame offsets:
#	150
#	10249
#	18756
#	39601
#	55048
#	76409
#	99626
#	121650
#	139222
#	160516
#	180164
#	198610
#	215708
#
# Disc length: 3055 seconds
#
# Revision: 0
# Processed by: cddbd v1.5.1PL0 Copyright (c) Steve Scherf et al.
# Submitted via: dBpowerAMP V4.0
#
DISCID=a00bed0d
DTITLE=Carole King - Crying In The Rain [CD1]
DYEAR=2002
DGENRE=Easy Listening
TTITLE0=Breaking Up Is Hard To Do
TTITLE1=Crying In The Rain
TTITLE2=It's Going To Take Some Time
TTITLE3=Brighter
TTITLE4=Growing Away From Me
TTITLE5=Too Much Rain
TTITLE6=Back To California
TTITLE7=Song Of Long Ago
TTITLE8=Sweet Seasons
TTITLE9=Some Kind Of Wonderful
TTITLE10=Carry Your Load
TTITLE11=Music
TTITLE12=Up On The Roof
EXTD=
EXTT0=
EXTT1=
EXTT2=
EXTT3=
EXTT4=
EXTT5=
EXTT6=
EXTT7=
EXTT8=
EXTT9=
EXTT10=
EXTT11=
EXTT12=
PLAYORDER=
